<svg width="35" height="94" viewBox="0 0 35 94" fill="none" xmlns="http://www.w3.org/2000/svg">
<path d="M29.8594 0.808594C32.8054 8.97839 34.4639 17.5585 34.7758 26.2433C35.1956 35.0081 34.2075 43.7875 31.8491 52.2484C31.2939 54.3701 30.6154 56.458 29.8172 58.5016L27.2264 64.6002C26.2232 66.5664 25.035 68.4383 23.9451 70.3328C23.4358 71.3031 22.8703 72.2431 22.2516 73.1481L20.1998 75.7257C18.7892 77.4428 17.5634 79.2544 16.0096 80.8093L11.3408 85.3947C9.76294 86.904 8.05003 88.2658 6.22373 89.4631C4.40656 90.5954 2.70961 91.988 0.93007 93.1806C7.42636 87.6252 13.1579 81.2354 17.9746 74.1786C19.2285 72.4887 20.3324 70.693 21.2738 68.8121C22.2353 66.9138 23.2114 65.1741 24.1958 63.1777L26.6457 57.4603C27.3858 55.4956 28.0184 53.4926 28.5409 51.4599C30.7833 43.3078 31.9916 34.9095 32.1374 26.4624C32.2477 22.207 32.0944 17.9496 31.6784 13.7146C31.3558 9.37664 30.7482 5.0654 29.8594 0.808594V0.808594Z" fill="#FBBFBF"/>
</svg>
