<svg width="67" height="184" viewBox="0 0 67 184" fill="none" xmlns="http://www.w3.org/2000/svg">
<path d="M56.4961 0.182617C62.3253 16.482 65.6837 33.5542 66.4586 50.8278C67.4493 68.2261 65.6576 85.657 61.1514 102.459C58.8257 110.854 55.7621 119.022 51.9965 126.868C48.1657 134.675 43.5802 142.083 38.3055 148.987C27.7864 162.703 14.8127 174.334 0.0416944 183.289C6.78188 178.058 13.1491 172.362 19.0974 166.242C25.0601 160.276 30.4734 153.783 35.2722 146.84C44.8822 132.966 52.0539 117.538 56.4789 101.22C60.8577 84.8456 62.9495 67.9301 62.6945 50.9559C62.5117 33.8691 60.4189 16.8468 56.4554 0.207975L56.4961 0.182617Z" fill="#FBBFBF"/>
</svg>
