<svg width="51" height="136" viewBox="0 0 51 136" fill="none" xmlns="http://www.w3.org/2000/svg">
<path d="M42.5059 0.0175781C46.8103 12.0534 49.2902 24.6598 49.8624 37.415C50.594 50.2623 49.2709 63.1336 45.9434 75.5409C44.2261 81.7399 41.9639 87.7714 39.1833 93.5649C36.3545 99.3294 32.9685 104.8 29.0735 109.898C21.306 120.026 11.726 128.614 0.818736 135.227C5.79583 131.364 10.4976 127.159 14.8898 122.64C19.2928 118.234 23.2902 113.439 26.8337 108.313C33.9299 98.0674 39.2256 86.6753 42.4932 74.626C45.7266 62.5345 47.2712 50.0438 47.0829 37.5097C46.9479 24.8924 45.4025 12.3228 42.4758 0.0363028L42.5059 0.0175781Z" fill="#FBBFBF"/>
</svg>
