<svg width="49" height="81" viewBox="0 0 49 81" fill="none" xmlns="http://www.w3.org/2000/svg">
<path d="M48.2487 80.8353C40.6009 77.599 33.5064 73.1863 27.2224 67.7573C20.7528 62.3566 15.1987 55.9457 10.775 48.7726C9.6684 46.9938 8.65385 45.1593 7.7354 43.2765L5.15449 37.5372C4.42003 35.5667 3.88896 33.5186 3.2476 31.5239C2.98208 30.4999 2.60624 29.5292 2.38727 28.4931L1.9114 25.4123C1.64242 23.321 1.15793 21.2609 1.06998 19.1972L0.828511 12.9011C0.804913 10.8244 0.956564 8.74934 1.28184 6.69809L2.12653 0.567449C1.92186 8.79108 2.8072 17.0056 4.75948 24.9968C5.15207 26.9732 5.69738 28.9163 6.3905 30.8084C7.07151 32.6686 7.67149 34.5995 8.42837 36.4649L10.9835 41.9127C11.8783 43.7036 12.8687 45.4451 13.9506 47.1296C18.1992 53.9902 23.2954 60.2882 29.1188 65.8746C32.0381 68.7104 35.1245 71.3689 38.3614 73.836C41.5096 76.3709 44.8117 78.7085 48.2487 80.8353Z" fill="#FBBFBF"/>
</svg>
