<svg width="70" height="118" viewBox="0 0 70 118" fill="none" xmlns="http://www.w3.org/2000/svg">
<path d="M69.8961 118.001C58.6768 113.177 48.251 106.685 38.9721 98.7455C29.4994 90.8961 21.3595 81.5653 14.8681 71.115C11.6791 65.822 8.95744 60.2612 6.73398 54.4956C4.56086 48.7469 2.94485 42.8028 1.90818 36.7452C-0.088955 24.6624 0.153371 12.3153 2.62308 0.320116C2.08655 6.34142 1.95415 12.3919 2.22682 18.4309C2.45221 24.4258 3.20866 30.389 4.48729 36.2503C7.02466 47.9229 11.5377 59.0763 17.8317 69.2289C24.1608 79.3939 31.8721 88.6298 40.7444 96.6715C45.1658 100.75 49.8279 104.559 54.7056 108.079C59.5493 111.711 64.6234 115.025 69.8961 118.001Z" fill="#FBBFBF"/>
</svg>
