<svg width="88" height="148" viewBox="0 0 88 148" fill="none" xmlns="http://www.w3.org/2000/svg">
<path d="M87.2247 147.555C73.23 141.539 60.2252 133.441 48.6509 123.537C36.8348 113.746 26.6813 102.107 18.5842 89.0716C14.6063 82.4693 11.2114 75.5328 8.43787 68.341C5.72718 61.1702 3.71141 53.7557 2.4183 46.1996C-0.0728773 31.1278 0.229392 15.7263 3.31004 0.763864C2.64079 8.27469 2.47564 15.8219 2.81576 23.3548C3.09691 30.8327 4.04049 38.271 5.63541 45.5823C8.80046 60.1424 14.4299 74.0549 22.2809 86.7189C30.1756 99.3985 39.7946 110.919 50.8616 120.95C56.3767 126.037 62.1921 130.789 68.2765 135.18C74.3183 139.71 80.6477 143.844 87.2247 147.555Z" fill="#FBBFBF"/>
</svg>
