<svg width="22" height="22" viewBox="0 0 22 22" fill="none" xmlns="http://www.w3.org/2000/svg">
<path fill-rule="evenodd" clip-rule="evenodd" d="M6 2C3.79086 2 2 3.79086 2 6V16C2 18.2091 3.79086 20 6 20H16C18.2091 20 20 18.2091 20 16V6C20 3.79086 18.2091 2 16 2H6ZM0 6C0 2.68629 2.68629 0 6 0H16C19.3137 0 22 2.68629 22 6V16C22 19.3137 19.3137 22 16 22H6C2.68629 22 0 19.3137 0 16V6Z" fill="#FF4948"/>
<path fill-rule="evenodd" clip-rule="evenodd" d="M11.483 7.98949C10.8588 7.89693 10.2214 8.00354 9.66126 8.29417C9.10116 8.58479 8.64697 9.04463 8.36327 9.60827C8.07957 10.1719 7.98083 10.8107 8.08108 11.4336C8.18132 12.0566 8.47546 12.6322 8.92165 13.0784C9.36785 13.5245 9.94337 13.8187 10.5664 13.9189C11.1894 14.0192 11.8281 13.9204 12.3917 13.6367C12.9554 13.353 13.4152 12.8988 13.7058 12.3387C13.9965 11.7786 14.1031 11.1412 14.0105 10.517C13.9161 9.88029 13.6194 9.29085 13.1643 8.83572C12.7092 8.38058 12.1197 8.0839 11.483 7.98949ZM8.74012 6.51892C9.67362 6.03455 10.7361 5.85685 11.7764 6.01112C12.8375 6.16847 13.82 6.66295 14.5785 7.4215C15.3371 8.18006 15.8315 9.16247 15.9889 10.2236C16.1432 11.2639 15.9655 12.3264 15.4811 13.2599C14.9967 14.1934 14.2303 14.9504 13.2909 15.4232C12.3515 15.896 11.287 16.0606 10.2486 15.8935C9.2103 15.7265 8.25109 15.2362 7.50744 14.4926C6.76379 13.7489 6.27356 12.7897 6.10648 11.7514C5.9394 10.7131 6.10397 9.64849 6.5768 8.70909C7.04963 7.76969 7.80662 7.00329 8.74012 6.51892Z" fill="#FF4948"/>
<path fill-rule="evenodd" clip-rule="evenodd" d="M15.5 5.5C15.5 4.94772 15.9477 4.5 16.5 4.5H16.51C17.0623 4.5 17.51 4.94772 17.51 5.5C17.51 6.05228 17.0623 6.5 16.51 6.5H16.5C15.9477 6.5 15.5 6.05228 15.5 5.5Z" fill="#FF4948"/>
</svg>
