<svg width="24" height="20" viewBox="0 0 24 20" fill="none" xmlns="http://www.w3.org/2000/svg">
<path fill-rule="evenodd" clip-rule="evenodd" d="M14.5256 0.360248C15.5744 -0.0400586 16.7208 -0.108602 17.8099 0.163889C18.6759 0.380578 19.4724 0.804613 20.1327 1.39516C20.9449 1.09664 21.7152 0.692632 22.4237 0.192893L23.0001 1.01006L23.9717 1.24667C23.6292 2.6532 22.9426 3.94962 21.977 5.02103C21.9918 5.18243 21.9996 5.34449 22.0001 5.50675L22.0001 5.51006C22.0001 11.61 19.0632 16.0851 14.845 18.3303C10.651 20.5626 5.29097 20.5378 0.51446 17.8842C0.109649 17.6593 -0.0877967 17.1859 0.0372519 16.74C0.162301 16.2941 0.577127 15.9924 1.03985 16.0108C2.72666 16.0779 4.39647 15.7425 5.91484 15.043C4.41169 14.1155 3.32952 13.0143 2.57716 11.8264C1.57353 10.2417 1.19466 8.56296 1.12613 7.05546C1.05781 5.55234 1.29658 4.19895 1.54758 3.22842C1.67368 2.74083 1.80452 2.34356 1.90538 2.06459C1.95587 1.92494 1.99901 1.81447 2.03054 1.73664C2.04631 1.69771 2.0592 1.6669 2.06866 1.64465L2.08023 1.61772L2.08319 1.61097C2.09023 1.59479 2.09773 1.57874 2.10568 1.56284L3.0001 2.01006L3.81846 1.43534C4.734 2.73902 5.95775 3.79605 7.38071 4.51227C8.51256 5.08197 9.7425 5.42198 10.9998 5.51647C10.9924 4.40681 11.3221 3.32071 11.9457 2.40211C12.5762 1.47331 13.4768 0.760554 14.5256 0.360248ZM3.40475 4.05366C3.22106 4.85503 3.07437 5.87129 3.12407 6.96465C3.18055 8.20715 3.48918 9.52844 4.2668 10.7563C5.04039 11.9777 6.31614 13.1673 8.40624 14.0962C8.73805 14.2437 8.96384 14.5594 8.99614 14.9211C9.02844 15.2828 8.86216 15.6335 8.56173 15.8374C7.4508 16.5915 6.2343 17.1589 4.9602 17.5257C8.13037 18.3334 11.3071 17.9477 13.9053 16.5648C17.4366 14.6852 19.9996 10.9109 20.0001 5.51172C19.9993 5.29563 19.9785 5.08007 19.9379 4.86781C19.8752 4.53995 19.9803 4.20243 20.2179 3.96805C20.4407 3.74836 20.647 3.51422 20.8358 3.26756C20.6093 3.35111 20.3801 3.42784 20.1484 3.49759C19.7718 3.611 19.3637 3.49309 19.1055 3.19629C18.6377 2.65838 18.016 2.27712 17.3244 2.10408C16.6328 1.93103 15.9048 1.97456 15.2388 2.22877C14.5727 2.48298 14.0009 2.93561 13.6005 3.52543C13.2001 4.11526 12.9905 4.81382 13 5.52665L13.0002 5.54006H13.0001V6.54006C13.0001 7.08224 12.568 7.52567 12.026 7.53972C10.1038 7.58956 8.19909 7.16325 6.48152 6.29873C5.33595 5.72213 4.29735 4.96254 3.40475 4.05366Z" fill="#FF4948"/>
</svg>
