<svg width="41" height="75" viewBox="0 0 41 75" fill="none" xmlns="http://www.w3.org/2000/svg">
<path d="M28.7437 12.509C28.7437 12.509 40.8537 16.7099 36.6762 19.5497C32.4987 22.3894 18.9806 58.1561 21.7734 62.8264C24.5662 67.4967 33.5079 52.1246 38.5303 57.2409C43.5526 62.3571 36.1834 74.9129 28.2978 73.9742C20.4122 73.0354 16.5633 65.1499 18.5112 55.3633C20.4592 45.5767 26.8897 29.7821 27.8988 26.5199C28.908 23.2578 25.106 21.4037 19.5204 24.6659C13.9348 27.9281 4.17168 22.319 1.37887 16.2875C-1.41393 10.2559 0.909503 -3.4326e-06 0.909503 -3.4326e-06C0.909503 -3.4326e-06 -0.944551 5.11623 8.34916 7.43966C17.6429 9.76309 25.4346 11.1243 28.7437 12.509Z" fill="white"/>
</svg>
