<svg width="94" height="104" viewBox="0 0 94 104" fill="none" xmlns="http://www.w3.org/2000/svg">
<path d="M18.8081 13.8997C24.8642 10.8451 30.7481 7.46051 36.4333 3.76112C45.0229 -1.98878 49.7167 0.757106 48.5902 4.58255C47.4637 8.40799 54.7156 35.3034 65.6756 49.5726C76.6356 63.8417 75.65 47.5308 83.911 44.738C92.1721 41.9452 96.6547 50.1358 90.2946 59.5704C83.9345 69.0049 69.6184 66.1651 67.7409 60.3683C65.8634 54.5714 52.3922 29.1311 48.4259 22.9822C44.4597 16.8333 41.3852 17.115 34.3446 24.3199C31.2589 27.5654 27.4154 29.9936 23.1592 31.3864C18.9031 32.7791 14.3677 33.0929 9.96028 32.2994C9.96028 32.2994 24.6519 60.5561 29.1579 69.5916C33.664 78.6272 37.419 90.2208 44.1077 89.9862C50.7963 89.7515 58.189 76.5149 63.5869 84.6821C68.9848 92.8493 53.0493 106.391 44.5536 102.519C36.0578 98.6462 30.8007 80.8332 24.511 68.512C18.2214 56.1908 -0.0844458 23.7801 1.04207 19.2272C2.16858 14.6742 10.6409 19.2272 18.8081 13.8997Z" fill="white"/>
</svg>
