<svg width="63" height="103" viewBox="0 0 63 103" fill="none" xmlns="http://www.w3.org/2000/svg">
<path d="M62.1905 81.3905C62.8623 83.4315 63.1204 85.586 62.9497 87.728C62.7789 89.8699 62.1827 91.9563 61.1959 93.8651C60.2092 95.7738 58.8516 97.4667 57.2028 98.8445C55.554 100.222 53.6469 101.258 51.5932 101.89C47.4388 103.3 42.8942 103.005 38.9575 101.067C35.0209 99.1302 32.0141 95.7097 30.5974 91.5572C29.9256 89.5162 29.6675 87.3617 29.8382 85.2198C30.009 83.0778 30.6052 80.9914 31.592 79.0827C32.5787 77.1739 33.9363 75.4811 35.5851 74.1032C37.2339 72.7254 39.141 71.6902 41.1947 71.0582C45.3492 69.6473 49.8937 69.943 53.8304 71.8802C57.767 73.8175 60.7738 77.238 62.1905 81.3905Z" fill="#FCB2B1"/>
<path d="M58.0517 77.0161C57.4888 77.8109 42.9175 68.3396 27.4853 53.8346C12.053 39.3296 -0.0675714 27.5402 0.495408 26.8447C1.05839 26.1493 14.7355 36.7797 30.0021 51.2515C45.2688 65.7234 58.6478 76.1882 58.0517 77.0161Z" fill="#FCB2B1"/>
<path d="M23.8754 0.454294C24.8358 0.454294 24.1734 9.59444 17.2521 18.006C10.3308 26.4176 1.32312 29.0007 1.09131 27.9409C0.859492 26.8812 8.17822 23.2715 14.3379 15.6216C20.4975 7.97173 22.8157 0.222479 23.8754 0.454294Z" fill="#FCB2B1"/>
<path d="M35.6952 12.7714C36.6555 12.7714 36.4237 21.8122 29.0719 29.5283C21.72 37.2444 12.5137 38.2379 12.5137 37.2775C12.5137 36.3171 20.0311 33.9659 26.4557 27.0777C32.8803 20.1895 34.5692 12.5727 35.6952 12.7714Z" fill="#FCB2B1"/>
</svg>
